<?xml version="1.0" encoding="UTF-8" standalone="no"?>
<svg
   xmlns:svg="http://www.w3.org/2000/svg"
   xmlns="http://www.w3.org/2000/svg"
   width="200"
   height="200"
   fill="Black"
   viewBox="0 0 48 48.000001"
   version="1.1"
   x="0px"
   y="0px">
  <path
     style="color:#000000"
     d="M 36.677734 20.568359 L 6.25 70.560547 L 100.1875 179.43164 L 102.07422 177.22656 L 144.64453 127.69531 C 150.91399 130.22993 157.1699 132.41411 163.02148 135.10742 C 158.39699 137.85306 154.32197 141.08997 152.19727 144.9707 C 150.72439 147.66086 150.06537 150.66878 150.87891 153.54883 C 151.69244 156.42888 153.94018 158.918 157.38867 160.72656 C 167.27403 165.91094 176.35503 163.34339 180.19922 157.13672 C 184.02788 150.95511 182.29566 141.76206 173.51953 135.36719 C 178.97034 133.7724 184.66973 133.2035 189.4043 135.07422 C 195.12553 137.33477 199.7471 142.46864 201.3418 153.13281 L 205.79492 152.4668 C 204.03421 140.6924 198.2677 133.74179 191.05664 130.89258 C 183.84558 128.04337 175.57123 129.11767 168.42383 132.01562 C 168.15899 132.123 167.97092 132.31748 167.70898 132.42969 C 161.19262 128.98461 154.27578 126.60176 147.76367 124.06641 L 193.75 70.560547 L 163.31445 20.568359 L 36.677734 20.568359 z M 42.421875 25.574219 L 95.6875 25.574219 L 96.341797 26.185547 L 56.005859 63.929688 L 42.421875 25.574219 z M 104.3125 25.574219 L 157.57812 25.574219 L 143.99414 63.929688 L 103.6543 26.189453 L 104.3125 25.574219 z M 37.992188 28.041016 L 52.597656 69.291016 L 12.876953 69.291016 L 37.992188 28.041016 z M 162.00586 28.048828 L 187.12305 69.291016 L 147.40234 69.291016 L 162.00586 28.048828 z M 102.49805 31.947266 L 142.40039 69.291016 L 102.5 69.291016 L 102.49805 31.947266 z M 97.494141 31.953125 L 97.498047 69.291016 L 57.599609 69.291016 L 97.494141 31.953125 z M 16.068359 74.296875 L 53.978516 74.296875 L 93.914062 164.50586 L 16.068359 74.296875 z M 59.445312 74.296875 L 97.498047 74.296875 L 97.507812 160.27344 L 59.445312 74.296875 z M 102.5 74.296875 L 140.55469 74.296875 L 102.50586 160.24219 L 102.5 74.296875 z M 146.01953 74.296875 L 183.94531 74.296875 L 142.87891 122.08203 C 142.84409 122.06703 142.80821 122.05214 142.77344 122.03711 L 142.62695 122.375 L 105.73047 165.30664 L 146.01953 74.296875 z M 167.86328 137.49219 C 168.78563 138.04436 169.92306 138.30413 170.79297 138.93164 C 178.29992 144.34679 178.87711 150.71711 176.36719 154.76953 C 173.85727 158.82195 167.91134 161.15986 159.48047 156.73828 C 156.78385 155.32404 155.62862 153.80395 155.20898 152.31836 C 154.78935 150.83277 155.06266 149.11077 156.14453 147.13477 C 158.02413 143.70173 162.57889 140.11886 167.86328 137.49219 z "
     transform="scale(0.24000001,0.24000001)" />
</svg>
