<?xml version="1.0" encoding="UTF-8" standalone="no"?>
<svg
   xmlns:svg="http://www.w3.org/2000/svg"
   xmlns="http://www.w3.org/2000/svg"
   width="200"
   height="200"
   fill="Black"
   viewBox="0 0 48 48.000001"
   version="1.1"
   x="0px"
   y="0px">
  <path
     style="color:#000000"
     d="M 36.677734 20.568359 L 6.25 70.560547 L 100.1875 179.43164 L 102.07422 177.22656 L 106.02148 172.63477 C 106.2788 172.72221 106.54037 172.78125 106.7832 172.78125 L 113.31445 172.78125 C 114.49406 172.78125 115.44922 171.82591 115.44922 170.64844 L 115.44922 168.21289 L 173.8418 167.27344 L 173.8418 168.75977 C 160.5958 175.17679 198.17655 177.25217 186.64062 168.75977 L 186.64062 137.41016 C 186.64062 136.23269 185.68546 135.27734 184.50586 135.27734 L 182.37305 135.27734 L 182.37305 119.00977 L 190.90625 119.00977 C 192.08585 119.00977 193.03906 118.05442 193.03906 116.87695 C 193.03906 115.69948 192.08585 114.74414 190.90625 114.74414 L 169.57422 114.74414 C 168.39675 114.74414 167.44141 115.69948 167.44141 116.87695 C 167.44141 118.05442 168.39675 119.00977 169.57422 119.00977 L 178.10742 119.00977 L 178.10742 135.27734 L 175.97461 135.27734 C 174.79714 135.27734 173.8418 136.23269 173.8418 137.41016 L 173.8418 163.00781 L 115.44922 163.65625 L 115.44922 162.11523 C 115.44922 161.97738 115.43122 161.84348 115.40625 161.71289 L 193.75 70.560547 L 163.31445 20.568359 L 36.677734 20.568359 z M 42.421875 25.574219 L 95.6875 25.574219 L 96.341797 26.185547 L 56.005859 63.929688 L 42.421875 25.574219 z M 104.3125 25.574219 L 157.57812 25.574219 L 143.99414 63.929688 L 103.6543 26.189453 L 104.3125 25.574219 z M 37.992188 28.041016 L 52.597656 69.291016 L 12.876953 69.291016 L 37.992188 28.041016 z M 162.00586 28.048828 L 187.12305 69.291016 L 147.40234 69.291016 L 162.00586 28.048828 z M 102.49805 31.947266 L 142.40039 69.291016 L 102.5 69.291016 L 102.49805 31.947266 z M 97.494141 31.953125 L 97.498047 69.291016 L 57.599609 69.291016 L 97.494141 31.953125 z M 16.068359 74.296875 L 53.978516 74.296875 L 93.914062 164.50586 L 16.068359 74.296875 z M 59.445312 74.296875 L 97.498047 74.296875 L 97.507812 160.27344 L 59.445312 74.296875 z M 102.5 74.296875 L 140.55469 74.296875 L 102.50586 160.24219 L 102.5 74.296875 z M 146.01953 74.296875 L 183.94531 74.296875 L 105.73047 165.30664 L 146.01953 74.296875 z "
     transform="scale(0.24000001,0.24000001)" />
</svg>
