<?xml version="1.0" encoding="UTF-8" standalone="no"?>
<svg
   xmlns:svg="http://www.w3.org/2000/svg"
   xmlns="http://www.w3.org/2000/svg"
   width="200"
   height="200"
   fill="Black"
   viewBox="0 0 48 48.000001"
   version="1.1"
   x="0px"
   y="0px">
  <path
     style="color:#000000"
     d="M 36.677734 20.568359 L 6.25 70.560547 L 100.1875 179.43164 L 102.07422 177.22656 L 193.75 70.560547 L 163.31445 20.568359 L 36.677734 20.568359 z M 42.421875 25.574219 L 95.6875 25.574219 L 96.341797 26.185547 L 56.005859 63.929688 L 42.421875 25.574219 z M 104.3125 25.574219 L 157.57812 25.574219 L 143.99414 63.929688 L 103.6543 26.189453 L 104.3125 25.574219 z M 37.992188 28.041016 L 52.597656 69.291016 L 12.876953 69.291016 L 37.992188 28.041016 z M 162.00586 28.048828 L 187.12305 69.291016 L 147.40234 69.291016 L 162.00586 28.048828 z M 102.49805 31.947266 L 142.40039 69.291016 L 102.5 69.291016 L 102.49805 31.947266 z M 97.494141 31.953125 L 97.498047 69.291016 L 57.599609 69.291016 L 97.494141 31.953125 z M 16.068359 74.296875 L 53.978516 74.296875 L 93.914062 164.50586 L 40.175781 102.23242 L 40.175781 96.222656 L 46.923828 96.222656 C 48.165399 96.222656 49.173828 95.21843 49.173828 93.974609 C 49.173828 93.907901 49.159974 93.844515 49.154297 93.779297 C 49.231787 93.551664 49.283203 93.312658 49.283203 93.058594 L 49.283203 84.060547 C 49.283203 82.816726 48.274774 81.8125 47.033203 81.8125 C 45.791632 81.8125 44.785156 82.816726 44.785156 84.060547 L 44.785156 91.724609 L 37.927734 91.724609 C 36.686162 91.724609 35.677734 92.730789 35.677734 93.974609 L 35.677734 97.019531 L 16.068359 74.296875 z M 59.445312 74.296875 L 97.498047 74.296875 L 97.507812 160.27344 L 59.445312 74.296875 z M 102.5 74.296875 L 140.55469 74.296875 L 102.50586 160.24219 L 102.5 74.296875 z M 146.01953 74.296875 L 183.94531 74.296875 L 105.73047 165.30664 L 146.01953 74.296875 z M 37.802734 112.82812 C 37.095353 112.82812 36.388528 113.12549 35.966797 113.72266 L 29.376953 123.04688 C 25.096679 128.97358 25.189945 135.92266 29.607422 140.33789 C 31.798167 142.52863 34.707506 143.73438 37.804688 143.73438 C 40.897375 143.73437 43.807301 142.52863 45.998047 140.33789 C 49.092984 137.24296 51.662528 131.75321 46.244141 123.06445 L 39.640625 113.72266 C 39.218894 113.12549 38.510116 112.82812 37.802734 112.82812 z M 37.804688 118.91797 L 42.498047 125.55078 C 47.075201 132.9035 43.870997 136.10557 42.818359 137.1582 C 40.137281 139.83928 35.469841 139.83928 32.791016 137.1582 C 29.947997 134.31743 30.03694 129.81222 33.035156 125.66016 L 37.804688 118.91797 z "
     transform="scale(0.24000001,0.24000001)" />
</svg>
