<?xml version="1.0" encoding="UTF-8" standalone="no"?>
<svg
   xmlns:svg="http://www.w3.org/2000/svg"
   xmlns="http://www.w3.org/2000/svg"
   width="220"
   height="230"
   viewBox="0 0 52.8 55.200001"
   version="1.1"
   x="0px"
   y="0px"
   style="fill:#000000">
  <path
     style="color:#000000"
     d="m 39.802034,0.01968746 -6.507658,6.08765654 -19.700625,0 L 7.1460942,0.07546876 6.3276564,0.95015608 12.876563,7.0795315 c 0.09881,0.1343836 0.257505,0.22875 0.480469,0.22875 l 1.939687,0 0.0033,6.2681255 -6.977344,0 -7.3026559,11.998125 14.3540629,16.635937 -5.194688,11.733752 1.097344,0.486562 4.965,-11.214375 7.323282,8.487187 0.452813,-0.529219 7.282032,-8.472655 5.192343,11.729062 1.097813,-0.486562 -5.423926,-12.250781 13.853907,-16.118908 -3.678281,-6.041719 5.551407,-5.195156 a 2.8730082,2.8730082 0 0 0 1.66078,0.531094 2.8730082,2.8730082 0 0 0 2.872969,-2.872969 A 2.8730082,2.8730082 0 0 0 49.553908,9.1228128 2.8730082,2.8730082 0 0 0 46.68094,11.995782 2.8730082,2.8730082 0 0 0 47.083128,13.455 l -5.378439,5.031563 -2.989219,-4.910156 -7.24172,0 -0.0019,-6.2681255 2.032032,0 c 0.202584,0 0.353664,-0.076866 0.453749,-0.1917188 l 0.008,0.00609 6.654843,-6.22828172 -0.818436,-0.87468742 z m -23.304846,7.28859404 13.77422,0 0.0028,6.2681255 -13.775158,0 -0.0019,-6.2681255 z m -6.795938,7.4695315 12.783751,0 0.157031,0.146719 -9.680625,9.058594 -3.260157,-9.205313 z m 14.853751,0 12.783749,0 -3.260155,9.205313 -9.681562,-9.057657 0.157968,-0.147656 z m -15.9168755,0.592031 3.5053125,9.900001 -9.5329692,0 6.0276567,-9.900001 z m 29.7632825,0.0019 6.028126,9.898126 -9.532971,0 3.504845,-9.898126 z m -14.881407,0.374535 10.176094,9.523594 -20.352188,0 10.176094,-9.523594 z m -20.1435947,10.725002 9.0984377,0 L 22.059376,48.12094 3.3764063,26.471251 Z m 10.4104687,0 19.466252,0 -9.733126,21.984844 -9.733126,-21.984844 z m 20.777814,0 9.102187,0 -18.771094,21.841876 9.668907,-21.841876 z m -12.875157,2.565 a 0.85798813,0.85798813 0 0 0 -0.857812,0.857812 0.85798813,0.85798813 0 0 0 0.857812,0.858282 0.85798813,0.85798813 0 0 0 0.857813,-0.858282 0.85798813,0.85798813 0 0 0 -0.857813,-0.857812 z m 3.660937,0 a 0.85798813,0.85798813 0 0 0 -0.857813,0.857812 0.85798813,0.85798813 0 0 0 0.857813,0.858282 0.85798813,0.85798813 0 0 0 0.857813,-0.858282 0.85798813,0.85798813 0 0 0 -0.857813,-0.857812 z m -1.783123,1.163906 a 0.85798813,0.85798813 0 0 0 -0.857814,0.857813 0.85798813,0.85798813 0 0 0 0.857814,0.857812 0.85798813,0.85798813 0 0 0 0.85781,-0.857812 0.85798813,0.85798813 0 0 0 -0.85781,-0.857813 z m 1.913436,0.933281 a 0.85798813,0.85798813 0 0 0 -0.857813,0.857813 0.85798813,0.85798813 0 0 0 0.857813,0.858282 0.85798813,0.85798813 0 0 0 0.857813,-0.858282 0.85798813,0.85798813 0 0 0 -0.857813,-0.857813 z m -3.78,0.04641 a 0.85798813,0.85798813 0 0 0 -0.858281,0.858281 0.85798813,0.85798813 0 0 0 0.858281,0.857813 0.85798813,0.85798813 0 0 0 0.857813,-0.857813 0.85798813,0.85798813 0 0 0 -0.857813,-0.858281 z m 5.581874,0.907031 a 0.85798813,0.85798813 0 0 0 -0.85781,0.85828 0.85798813,0.85798813 0 0 0 0.85781,0.857813 0.85798813,0.85798813 0 0 0 0.857813,-0.857813 0.85798813,0.85798813 0 0 0 -0.857813,-0.85828 z m -3.683436,0.158438 a 0.85798813,0.85798813 0 0 0 -0.857813,0.858281 0.85798813,0.85798813 0 0 0 0.857813,0.857812 0.85798813,0.85798813 0 0 0 0.857813,-0.857812 0.85798813,0.85798813 0 0 0 -0.857813,-0.858281 z m -3.740157,0.045 a 0.85798813,0.85798813 0 0 0 -0.858281,0.858281 0.85798813,0.85798813 0 0 0 0.858281,0.857812 0.85798813,0.85798813 0 0 0 0.857813,-0.857812 0.85798813,0.85798813 0 0 0 -0.857813,-0.858281 z m 1.841719,0.896249 a 0.85798813,0.85798813 0 0 0 -0.858281,0.858283 0.85798813,0.85798813 0 0 0 0.858281,0.85781 0.85798813,0.85798813 0 0 0 0.857813,-0.85781 0.85798813,0.85798813 0 0 0 -0.857813,-0.858283 z m 3.826874,0 a 0.85798813,0.85798813 0 0 0 -0.858281,0.858283 0.85798813,0.85798813 0 0 0 0.858281,0.85781 0.85798813,0.85798813 0 0 0 0.857813,-0.85781 0.85798813,0.85798813 0 0 0 -0.857813,-0.858283 z m -1.96031,1.027032 a 0.85798813,0.85798813 0 0 0 -0.857814,0.857813 0.85798813,0.85798813 0 0 0 0.857814,0.857812 0.85798813,0.85798813 0 0 0 0.85781,-0.857812 0.85798813,0.85798813 0 0 0 -0.85781,-0.857813 z m 1.986561,0.924374 a 0.85798813,0.85798813 0 0 0 -0.857812,0.857813 0.85798813,0.85798813 0 0 0 0.857812,0.858281 0.85798813,0.85798813 0 0 0 0.857813,-0.858281 0.85798813,0.85798813 0 0 0 -0.857813,-0.857813 z m -3.966094,0.203439 a 0.85798813,0.85798813 0 0 0 -0.857812,0.857812 0.85798813,0.85798813 0 0 0 0.857812,0.858281 0.85798813,0.85798813 0 0 0 0.857813,-0.858281 0.85798813,0.85798813 0 0 0 -0.857813,-0.857812 z" />
</svg>
